# xmcd
# Track frame offsets:
# 183
# 12038
# 24645
# 39928
# 51870
# 66048
# 78100
# 89963
# 103425
# 117185
# 130725
# 140163
# 153378
# 167358
# 176090
# 186013
# 197738
# 207813
# 220738
# 233635
# 248173
# 259955
# 276928
# 286973
# 299298
# 313073
# 323973
# 337263
#
# Disc length: 4654 seconds
# Revision: 2
# Processed by: cddbd v1.5.2PL0 Copyright (c) Steve Scherf et al.
# Submitted via: VisiTrax 2.11.3.279 - For more info visit www.synapsa.com
#
DISCID=a6122c1c
DTITLE=Ford, Tennessee Ernie - Capitol Country Music Classics
DYEAR=1992
DGENRE=Pop
TTITLE0=Sixteen Tons
TTITLE1=Stack-O-Lee with Joe 'Fingers' Carr
TTITLE2=Philadelphia Lawyer
TTITLE3=Ocean Of Tears with Kay Starr
TTITLE4=Give Me Your Word
TTITLE5=Sweet Temptation
TTITLE6=Barbara Allen
TTITLE7=Streamlined Cannonball with The Dinning Sisters
TTITLE8=Mule Train
TTITLE9=Kentucky Waltz
TTITLE10=Hey Good Lookin' with Helen O'Connell
TTITLE11=Release Me
TTITLE12=Bright Lights and Blonde Haired Women with The Starlighters
TTITLE13=This Must Be The Place with Betty Hutton
TTITLE14=First Born
TTITLE15=Shot-Gun Boogie
TTITLE16=You Don't Have To Be A Baby To Cry
TTITLE17=The Ballad Of Davy Crockett
TTITLE18=I Really Don't Want To Know with Glen Campbell
TTITLE19=Born To Lose
TTITLE20=You're My Sugar with Kay Starr
TTITLE21=I Gotta Have My Baby Back
TTITLE22=The Rovin' Gambler
TTITLE23=Colorado Country Morning
TTITLE24=Baby with Andra Willis
TTITLE25=This Land Is Your Land
TTITLE26=Just A Little Talk With Jesus with The Jordannaires
TTITLE27=The Old Rugged Cross
EXTD=
EXTT0=
EXTT1=
EXTT2=
EXTT3=
EXTT4=
EXTT5=
EXTT6=
EXTT7=
EXTT8=
EXTT9=
EXTT10=
EXTT11=
EXTT12=
EXTT13=
EXTT14=
EXTT15=
EXTT16=
EXTT17=
EXTT18=
EXTT19=
EXTT20=
EXTT21=
EXTT22=
EXTT23=
EXTT24=
EXTT25=
EXTT26=
EXTT27=
PLAYORDER=
